<svg xmlns="http://www.w3.org/2000/svg" xmlns:xlink="http://www.w3.org/1999/xlink" xmlns:s="https://github.com/nturley/netlistsvg" width="667" height="398">
  <style>svg {
    stroke:#000;
    fill:none;
  }
  text {
    fill:#000;
    stroke:none;
    font-size:10px;
    font-weight: bold;
    font-family: "Courier New", monospace;
  }
  .nodelabel {
    text-anchor: middle;
  }
  .inputPortLabel {
    text-anchor: end;
  }
  .splitjoinBody {
    fill:#000;
  }</style>
  <g s:type="generic" transform="translate(114,323)" s:width="30" s:height="40" id="cell_restador1">
    <text x="15" y="-4" class="nodelabel cell_restador1" s:attribute="ref">restador</text>
    <rect width="30" height="60" s:generic="body" class="cell_restador1"/>
    <g transform="translate(0,10)" s:x="0" s:y="10" s:pid="in0" id="port_restador1~in_a">
      <text x="-3" y="-4" class="inputPortLabel cell_restador1">in_a</text>
    </g>
    <g transform="translate(0,30)" s:x="0" s:y="10" s:pid="in0" id="port_restador1~in_b">
      <text x="-3" y="-4" class="inputPortLabel cell_restador1">in_b</text>
    </g>
    <g transform="translate(0,50)" s:x="0" s:y="10" s:pid="in0" id="port_restador1~in_pi">
      <text x="-3" y="-4" class="inputPortLabel cell_restador1">in_pi</text>
    </g>
    <g transform="translate(30,10)" s:x="30" s:y="10" s:pid="out0" id="port_restador1~out_po">
      <text x="5" y="-4" style="fill:#000; stroke:none" class="cell_restador1">out_po</text>
    </g>
    <g transform="translate(30,30)" s:x="30" s:y="10" s:pid="out0" id="port_restador1~out_s">
      <text x="5" y="-4" style="fill:#000; stroke:none" class="cell_restador1">out_s</text>
    </g>
  </g>
  <g s:type="generic" transform="translate(248,237.5)" s:width="30" s:height="40" id="cell_restador2">
    <text x="15" y="-4" class="nodelabel cell_restador2" s:attribute="ref">restador</text>
    <rect width="30" height="60" s:generic="body" class="cell_restador2"/>
    <g transform="translate(0,10)" s:x="0" s:y="10" s:pid="in0" id="port_restador2~in_a">
      <text x="-3" y="-4" class="inputPortLabel cell_restador2">in_a</text>
    </g>
    <g transform="translate(0,30)" s:x="0" s:y="10" s:pid="in0" id="port_restador2~in_b">
      <text x="-3" y="-4" class="inputPortLabel cell_restador2">in_b</text>
    </g>
    <g transform="translate(0,50)" s:x="0" s:y="10" s:pid="in0" id="port_restador2~in_pi">
      <text x="-3" y="-4" class="inputPortLabel cell_restador2">in_pi</text>
    </g>
    <g transform="translate(30,10)" s:x="30" s:y="10" s:pid="out0" id="port_restador2~out_po">
      <text x="5" y="-4" style="fill:#000; stroke:none" class="cell_restador2">out_po</text>
    </g>
    <g transform="translate(30,30)" s:x="30" s:y="10" s:pid="out0" id="port_restador2~out_s">
      <text x="5" y="-4" style="fill:#000; stroke:none" class="cell_restador2">out_s</text>
    </g>
  </g>
  <g s:type="generic" transform="translate(382,152)" s:width="30" s:height="40" id="cell_restador3">
    <text x="15" y="-4" class="nodelabel cell_restador3" s:attribute="ref">restador</text>
    <rect width="30" height="60" s:generic="body" class="cell_restador3"/>
    <g transform="translate(0,10)" s:x="0" s:y="10" s:pid="in0" id="port_restador3~in_a">
      <text x="-3" y="-4" class="inputPortLabel cell_restador3">in_a</text>
    </g>
    <g transform="translate(0,30)" s:x="0" s:y="10" s:pid="in0" id="port_restador3~in_b">
      <text x="-3" y="-4" class="inputPortLabel cell_restador3">in_b</text>
    </g>
    <g transform="translate(0,50)" s:x="0" s:y="10" s:pid="in0" id="port_restador3~in_pi">
      <text x="-3" y="-4" class="inputPortLabel cell_restador3">in_pi</text>
    </g>
    <g transform="translate(30,10)" s:x="30" s:y="10" s:pid="out0" id="port_restador3~out_po">
      <text x="5" y="-4" style="fill:#000; stroke:none" class="cell_restador3">out_po</text>
    </g>
    <g transform="translate(30,30)" s:x="30" s:y="10" s:pid="out0" id="port_restador3~out_s">
      <text x="5" y="-4" style="fill:#000; stroke:none" class="cell_restador3">out_s</text>
    </g>
  </g>
  <g s:type="generic" transform="translate(516,66.5)" s:width="30" s:height="40" id="cell_restador4">
    <text x="15" y="-4" class="nodelabel cell_restador4" s:attribute="ref">restador</text>
    <rect width="30" height="60" s:generic="body" class="cell_restador4"/>
    <g transform="translate(0,10)" s:x="0" s:y="10" s:pid="in0" id="port_restador4~in_a">
      <text x="-3" y="-4" class="inputPortLabel cell_restador4">in_a</text>
    </g>
    <g transform="translate(0,30)" s:x="0" s:y="10" s:pid="in0" id="port_restador4~in_b">
      <text x="-3" y="-4" class="inputPortLabel cell_restador4">in_b</text>
    </g>
    <g transform="translate(0,50)" s:x="0" s:y="10" s:pid="in0" id="port_restador4~in_pi">
      <text x="-3" y="-4" class="inputPortLabel cell_restador4">in_pi</text>
    </g>
    <g transform="translate(30,10)" s:x="30" s:y="10" s:pid="out0" id="port_restador4~out_po">
      <text x="5" y="-4" style="fill:#000; stroke:none" class="cell_restador4">out_po</text>
    </g>
    <g transform="translate(30,30)" s:x="30" s:y="10" s:pid="out0" id="port_restador4~out_s">
      <text x="5" y="-4" style="fill:#000; stroke:none" class="cell_restador4">out_s</text>
    </g>
  </g>
  <g s:type="inputExt" transform="translate(12,298.5)" s:width="30" s:height="20" id="cell_in_b0">
    <text x="15" y="-4" class="nodelabel cell_in_b0" s:attribute="ref">in_b0</text>
    <s:alias val="$_inputExt_"/>
    <path d="M0,0 L0,20 L15,20 L30,10 L15,0 Z" class="cell_in_b0"/>
    <g s:x="28" s:y="10" s:pid="Y"/>
  </g>
  <g s:type="inputExt" transform="translate(12,233.5)" s:width="30" s:height="20" id="cell_in_a0">
    <text x="15" y="-4" class="nodelabel cell_in_a0" s:attribute="ref">in_a0</text>
    <s:alias val="$_inputExt_"/>
    <path d="M0,0 L0,20 L15,20 L30,10 L15,0 Z" class="cell_in_a0"/>
    <g s:x="28" s:y="10" s:pid="Y"/>
  </g>
  <g s:type="inputExt" transform="translate(114,258)" s:width="30" s:height="20" id="cell_in_b1">
    <text x="15" y="-4" class="nodelabel cell_in_b1" s:attribute="ref">in_b1</text>
    <s:alias val="$_inputExt_"/>
    <path d="M0,0 L0,20 L15,20 L30,10 L15,0 Z" class="cell_in_b1"/>
    <g s:x="28" s:y="10" s:pid="Y"/>
  </g>
  <g s:type="inputExt" transform="translate(114,193)" s:width="30" s:height="20" id="cell_in_a1">
    <text x="15" y="-4" class="nodelabel cell_in_a1" s:attribute="ref">in_a1</text>
    <s:alias val="$_inputExt_"/>
    <path d="M0,0 L0,20 L15,20 L30,10 L15,0 Z" class="cell_in_a1"/>
    <g s:x="28" s:y="10" s:pid="Y"/>
  </g>
  <g s:type="inputExt" transform="translate(248,172.5)" s:width="30" s:height="20" id="cell_in_b2">
    <text x="15" y="-4" class="nodelabel cell_in_b2" s:attribute="ref">in_b2</text>
    <s:alias val="$_inputExt_"/>
    <path d="M0,0 L0,20 L15,20 L30,10 L15,0 Z" class="cell_in_b2"/>
    <g s:x="28" s:y="10" s:pid="Y"/>
  </g>
  <g s:type="inputExt" transform="translate(248,107.5)" s:width="30" s:height="20" id="cell_in_a2">
    <text x="15" y="-4" class="nodelabel cell_in_a2" s:attribute="ref">in_a2</text>
    <s:alias val="$_inputExt_"/>
    <path d="M0,0 L0,20 L15,20 L30,10 L15,0 Z" class="cell_in_a2"/>
    <g s:x="28" s:y="10" s:pid="Y"/>
  </g>
  <g s:type="inputExt" transform="translate(382,87)" s:width="30" s:height="20" id="cell_in_b3">
    <text x="15" y="-4" class="nodelabel cell_in_b3" s:attribute="ref">in_b3</text>
    <s:alias val="$_inputExt_"/>
    <path d="M0,0 L0,20 L15,20 L30,10 L15,0 Z" class="cell_in_b3"/>
    <g s:x="28" s:y="10" s:pid="Y"/>
  </g>
  <g s:type="inputExt" transform="translate(382,22)" s:width="30" s:height="20" id="cell_in_a3">
    <text x="15" y="-4" class="nodelabel cell_in_a3" s:attribute="ref">in_a3</text>
    <s:alias val="$_inputExt_"/>
    <path d="M0,0 L0,20 L15,20 L30,10 L15,0 Z" class="cell_in_a3"/>
    <g s:x="28" s:y="10" s:pid="Y"/>
  </g>
  <g s:type="inputExt" transform="translate(12,363.5)" s:width="30" s:height="20" id="cell_in_pa0">
    <text x="15" y="-4" class="nodelabel cell_in_pa0" s:attribute="ref">in_pa0</text>
    <s:alias val="$_inputExt_"/>
    <path d="M0,0 L0,20 L15,20 L30,10 L15,0 Z" class="cell_in_pa0"/>
    <g s:x="28" s:y="10" s:pid="Y"/>
  </g>
  <g s:type="outputExt" transform="translate(619,22)" s:width="30" s:height="20" id="cell_out_pa">
    <text x="15" y="-4" class="nodelabel cell_out_pa" s:attribute="ref">out_pa</text>
    <s:alias val="$_outputExt_"/>
    <path d="M30,0 L30,20 L15,20 L0,10 L15,0 Z" class="cell_out_pa"/>
    <g s:x="0" s:y="10" s:pid="A"/>
  </g>
  <g s:type="outputExt" transform="translate(619,343.5)" s:width="30" s:height="20" id="cell_out_s0">
    <text x="15" y="-4" class="nodelabel cell_out_s0" s:attribute="ref">out_s0</text>
    <s:alias val="$_outputExt_"/>
    <path d="M30,0 L30,20 L15,20 L0,10 L15,0 Z" class="cell_out_s0"/>
    <g s:x="0" s:y="10" s:pid="A"/>
  </g>
  <g s:type="outputExt" transform="translate(619,258)" s:width="30" s:height="20" id="cell_out_s1">
    <text x="15" y="-4" class="nodelabel cell_out_s1" s:attribute="ref">out_s1</text>
    <s:alias val="$_outputExt_"/>
    <path d="M30,0 L30,20 L15,20 L0,10 L15,0 Z" class="cell_out_s1"/>
    <g s:x="0" s:y="10" s:pid="A"/>
  </g>
  <g s:type="outputExt" transform="translate(619,172.5)" s:width="30" s:height="20" id="cell_out_s2">
    <text x="15" y="-4" class="nodelabel cell_out_s2" s:attribute="ref">out_s2</text>
    <s:alias val="$_outputExt_"/>
    <path d="M30,0 L30,20 L15,20 L0,10 L15,0 Z" class="cell_out_s2"/>
    <g s:x="0" s:y="10" s:pid="A"/>
  </g>
  <g s:type="outputExt" transform="translate(619,87)" s:width="30" s:height="20" id="cell_out_s3">
    <text x="15" y="-4" class="nodelabel cell_out_s3" s:attribute="ref">out_s3</text>
    <s:alias val="$_outputExt_"/>
    <path d="M30,0 L30,20 L15,20 L0,10 L15,0 Z" class="cell_out_s3"/>
    <g s:x="0" s:y="10" s:pid="A"/>
  </g>
  <line x1="40" x2="68" y1="243.5" y2="243.5" class="net_3"/>
  <line x1="68" x2="68" y1="243.5" y2="333.5" class="net_3"/>
  <line x1="68" x2="114" y1="333.5" y2="333.5" class="net_3"/>
  <line x1="40" x2="58" y1="308.5" y2="308.5" class="net_2"/>
  <line x1="58" x2="58" y1="308.5" y2="353.5" class="net_2"/>
  <line x1="58" x2="114" y1="353.5" y2="353.5" class="net_2"/>
  <line x1="40" x2="114" y1="373.5" y2="373.5" class="net_10"/>
  <line x1="142" x2="192" y1="203" y2="203" class="net_5"/>
  <line x1="192" x2="192" y1="203" y2="248" class="net_5"/>
  <line x1="192" x2="248" y1="248" y2="248" class="net_5"/>
  <line x1="142" x2="248" y1="268" y2="268" class="net_4"/>
  <line x1="145" x2="192" y1="333.5" y2="333.5" class="net_16"/>
  <line x1="192" x2="192" y1="333.5" y2="288" class="net_16"/>
  <line x1="192" x2="248" y1="288" y2="288" class="net_16"/>
  <line x1="276" x2="326" y1="117.5" y2="117.5" class="net_7"/>
  <line x1="326" x2="326" y1="117.5" y2="162.5" class="net_7"/>
  <line x1="326" x2="382" y1="162.5" y2="162.5" class="net_7"/>
  <line x1="276" x2="382" y1="182.5" y2="182.5" class="net_6"/>
  <line x1="279" x2="326" y1="248" y2="248" class="net_17"/>
  <line x1="326" x2="326" y1="248" y2="202.5" class="net_17"/>
  <line x1="326" x2="382" y1="202.5" y2="202.5" class="net_17"/>
  <line x1="410" x2="460" y1="32" y2="32" class="net_9"/>
  <line x1="460" x2="460" y1="32" y2="77" class="net_9"/>
  <line x1="460" x2="516" y1="77" y2="77" class="net_9"/>
  <line x1="410" x2="516" y1="97" y2="97" class="net_8"/>
  <line x1="413" x2="460" y1="162.5" y2="162.5" class="net_18"/>
  <line x1="460" x2="460" y1="162.5" y2="117" class="net_18"/>
  <line x1="460" x2="516" y1="117" y2="117" class="net_18"/>
  <line x1="547" x2="594" y1="77" y2="77" class="net_11"/>
  <line x1="594" x2="594" y1="77" y2="32" class="net_11"/>
  <line x1="594" x2="619" y1="32" y2="32" class="net_11"/>
  <line x1="145" x2="619" y1="353.5" y2="353.5" class="net_12"/>
  <line x1="279" x2="619" y1="268" y2="268" class="net_13"/>
  <line x1="413" x2="619" y1="182.5" y2="182.5" class="net_14"/>
  <line x1="547" x2="619" y1="97" y2="97" class="net_15"/>
</svg>
